<svg width="424" height="205" viewBox="0 0 424 205" fill="none" xmlns="http://www.w3.org/2000/svg">
<path d="M150.077 66.3174C150.525 69.2256 151.643 71.9092 153.431 74.1467C152.09 74.8176 150.748 75.7132 149.629 76.8303C146.721 79.7386 145.379 84.2116 146.721 88.014C147.169 89.1327 148.287 90.6976 147.392 91.8163C146.944 92.264 146.498 92.264 145.825 92.0394C142.246 90.6976 139.563 87.1186 138.667 82.4222C137.328 75.2639 142.472 68.1071 150.077 66.3177L150.077 66.3174Z" fill="#E8594F"/>
<path d="M138.669 42.832C137.775 44.6216 137.327 46.6343 136.209 48.4239C135.761 49.0948 135.09 49.5425 134.196 49.5425C133.525 49.5425 132.854 48.8717 132.629 48.2008C132.406 47.0821 132.182 45.5171 132.182 43.7277C132.406 42.8321 137.998 42.832 138.669 42.832Z" fill="#E8594F"/>
<path d="M173.787 28.2934C170.433 30.3061 167.748 33.2142 166.183 37.2395C165.512 35.2268 164.393 33.4373 163.051 31.6477C159.472 26.7269 154.551 23.3722 148.736 22.0306C148.959 21.8074 149.184 21.8074 149.407 21.5828C158.577 17.7805 168.642 20.6888 173.787 28.2934Z" fill="#E8594F"/>
<path d="M164.168 40.5963C163.72 42.1627 163.497 43.9507 163.274 45.7404C162.155 46.1881 161.036 46.6344 159.919 47.0821C157.459 45.9635 154.999 45.2926 152.315 45.0695C152.315 45.0695 148.29 42.3859 147.394 41.9381C144.711 40.8194 141.802 40.3716 138.894 40.3716C131.29 40.5947 123.908 44.8447 121 52.2263C119.658 55.8054 119.881 59.8308 118.762 63.41C118.315 64.5287 117.644 65.1996 116.525 65.4227C115.631 65.6458 114.736 64.9749 114.065 64.0809C111.604 59.3845 111.158 52.6739 111.604 47.3054C112.5 41.4903 115.183 35.6756 119.433 31.2009C127.263 22.9254 140.011 20.0172 150.524 24.4903C157.011 27.6232 162.155 33.6612 164.168 40.5963Z" fill="#E8594F"/>
<path d="M157.232 49.5421C157.009 49.5421 155.89 50.4361 155.666 50.6608C152.086 53.7922 149.626 58.7131 150.074 63.411H148.507C140.007 63.411 133.073 68.5551 131.509 76.8322C131.061 79.0696 131.061 81.0824 130.39 83.3179C130.167 84.2119 129.496 84.8844 128.6 84.8844C127.706 84.8844 127.034 84.4366 126.588 83.7657C124.798 80.1866 123.904 73.7008 124.798 68.5567C126.588 57.8208 135.982 49.3208 146.718 48.202C150.074 47.7527 153.876 48.2003 157.232 49.5421Z" fill="#E8594F"/>
<path d="M284.503 82.6467C284.055 86.8969 281.819 90.699 277.569 92.2639C276.898 92.487 276.451 92.487 276.003 92.0408C275.555 91.593 275.555 90.9221 275.78 90.2512C276.674 88.0138 277.569 86.001 277.121 83.3177C276.674 80.8572 275.555 78.6198 273.767 76.832C272.648 75.7133 271.307 74.5946 269.742 73.9238C269.742 73.9238 269.742 71.4633 268.848 69.4507C270.189 68.5567 271.085 67.438 271.756 66.3193C271.756 66.3193 273.993 66.3193 275.11 66.5424C283.607 69.4507 285.173 77.0549 284.503 82.6467Z" fill="#E8594F"/>
<path d="M274.886 20.6874C269.071 22.2539 263.926 25.6083 260.348 30.7523C259.006 32.5419 257.888 34.5546 257.217 36.5674C255.65 32.3173 252.519 29.8569 248.941 27.6213C254.085 20.0168 264.823 16.6609 274.217 20.2401C274.44 20.4632 274.663 20.4632 274.886 20.6879V20.6874Z" fill="#E8594F"/>
<path d="M290.319 43.7259C290.319 45.2924 290.096 46.8572 289.871 48.199C289.648 49.093 289.2 49.5408 288.305 49.5408C286.963 49.7639 286.067 48.199 285.621 47.0803C285.398 46.6325 284.055 42.8301 284.055 42.8301C284.056 42.8301 287.858 42.8303 290.319 43.7259Z" fill="#E8594F"/>
<path d="M297.029 83.7643C296.581 84.6583 295.91 85.1061 295.016 84.883C294.122 84.883 293.45 84.2121 293.227 83.3166C292.108 79.5143 291.885 75.7121 290.543 72.1329C286.964 63.4096 275.78 62.5157 272.649 63.6329C273.543 59.8307 272.426 55.8035 269.518 52.897C270.188 50.4365 272.201 48.6468 272.872 47.9762C278.241 47.5284 283.608 48.8702 288.529 52.2264C294.121 56.0286 297.923 61.8435 298.819 68.5541C299.489 73.6998 298.819 80.1852 297.029 83.7643Z" fill="#E8594F"/>
<path d="M308.662 64.0798C308.214 64.9739 307.32 65.6463 306.201 65.4216C303.741 65.1985 303.741 62.5134 303.518 60.7237C303.07 58.0401 302.624 55.5796 301.728 52.8943C300.386 49.0921 298.374 45.736 295.018 43.5001C286.071 37.9082 270.861 39.9209 266.611 50.4335C263.256 48.4208 259.677 48.4208 259.677 48.4208C259.677 45.5126 259.229 41.9351 258.783 39.6976C258.783 39.6976 259.902 37.2371 260.573 36.1184C263.033 31.4205 266.836 27.3952 271.756 24.9348C283.388 19.1197 298.149 23.1452 305.978 33.2103C309.333 37.4605 311.347 43.0523 311.794 48.4193C311.569 53.791 311.123 59.6061 308.662 64.0792L308.662 64.0798Z" fill="#E8594F"/>
<path d="M238.875 63.4098C237.981 63.6329 236.862 64.0806 235.967 64.3038C234.848 64.5269 233.954 64.9747 232.835 65.1978C229.704 66.0918 226.35 66.5396 222.77 66.9874C219.191 67.4351 215.612 67.6583 211.81 67.6583C208.008 67.6583 204.429 67.4352 200.85 66.9874C200.402 66.9874 199.956 66.7643 199.508 66.7643C203.31 69.4479 207.112 72.8038 210.244 76.6063C211.362 77.9481 212.481 79.2899 213.598 80.8565C219.413 80.6334 224.782 79.7378 229.703 77.9482C230.15 76.6064 230.821 75.2646 231.715 73.9229C234.176 69.225 237.53 65.4229 241.333 62.7393C240.665 62.7393 239.771 63.187 238.875 63.4102L238.875 63.4098Z" fill="#E8594F"/>
<path d="M256.321 49.0948H255.427C251.177 49.5425 247.152 52.4492 245.585 56.476C245.585 56.6991 245.137 58.2656 245.137 58.2656C243.795 58.9365 242.229 59.3842 240.887 60.0551C236.414 61.6216 231.941 62.7388 227.466 63.6343C222.322 64.5283 216.953 64.9761 211.809 64.9761C208.901 64.9761 205.994 64.753 203.086 64.5283C200.625 64.3052 197.942 64.0805 195.481 63.4096C194.14 62.7387 192.798 62.0678 191.456 61.3969C191.008 58.4887 189.667 55.8051 187.877 53.3447C185.417 50.2133 182.062 47.9761 178.26 46.859C174.681 45.7403 170.879 45.5172 167.076 46.1881C167.524 37.017 174.681 29.4126 183.628 27.846C185.418 27.6229 186.983 27.1751 188.772 26.952C190.562 28.9647 192.352 30.5312 194.364 32.0961C196.154 33.4379 197.943 34.7797 200.179 33.4379C201.521 32.5439 202.192 30.7543 201.298 28.9648L200.179 26.2812H211.811H223.442C223.442 26.2812 222.771 27.6231 222.548 28.294C221.877 30.0835 221.654 32.3193 223.219 33.438C225.232 35.0045 227.021 33.6611 228.811 32.544C231.048 30.9776 233.061 29.1896 234.851 27.1755C241.784 28.0695 249.166 30.3068 253.193 36.3465C254.534 38.3592 255.43 40.8195 256.101 43.0571C256.098 44.8451 256.321 47.0824 256.321 49.095L256.321 49.0948Z" fill="#E8594F"/>
<path d="M188.325 61.1727C182.51 58.9353 174.233 57.8182 168.195 59.6062C161.933 61.3958 156.564 66.092 155.445 72.3564C152.091 67.8833 152.091 62.0666 154.551 57.1474C158.353 49.5429 167.972 46.8577 175.577 48.8719C179.379 49.9906 182.735 52.0033 185.194 55.1348C186.759 56.6981 187.877 58.9354 188.325 61.1727Z" fill="#E8594F"/>
<path d="M210.69 83.3174C204.651 74.5941 196.598 67.4358 186.533 63.6337C178.929 60.9501 169.758 60.0546 163.047 65.2002C154.772 71.6859 154.324 82.8696 157.008 92.2655C159.021 99.4238 162.823 106.133 167.744 111.725C171.323 115.975 175.573 119.554 180.046 122.461C184.519 125.144 189.217 127.158 193.69 128.052C194.584 128.276 195.257 127.829 195.703 127.381C196.151 126.711 196.374 125.815 195.926 125.144L184.966 101.883C184.295 100.316 184.518 98.5284 185.86 97.4098C187.201 96.2912 188.991 96.068 190.558 96.9621L215.833 112.171C216.504 112.619 217.175 112.619 217.846 112.171C218.517 111.723 218.964 111.052 218.964 110.381C219.862 100.989 216.059 91.1471 210.691 83.3178L210.69 83.3174ZM169.087 94.2778C167.968 94.7256 166.626 94.2778 166.179 93.1591C165.731 92.0404 166.179 90.6986 167.297 90.2509C168.416 89.8031 169.758 90.2509 170.206 91.3695C170.652 92.4882 170.206 93.83 169.087 94.2778ZM169.981 79.0672C167.968 79.0672 166.402 77.5007 166.402 75.4881C166.402 73.4754 167.968 72.1336 169.981 72.1336C171.994 72.1336 173.335 73.7001 173.335 75.4881C173.56 77.7254 171.995 79.0672 169.981 79.0672ZM185.639 87.1194C185.192 87.7903 184.298 87.7903 183.627 87.3425C182.956 86.8947 182.956 86.0007 183.404 85.3298C183.851 84.6589 184.745 84.6589 185.416 85.1067C186.086 85.5545 186.086 86.4485 185.639 87.1194ZM191.454 75.9358C190.56 76.3836 189.442 75.9358 188.994 75.0418C188.546 74.1477 188.994 73.0291 189.888 72.5813C190.782 72.1335 191.901 72.5813 192.348 73.4753C192.796 74.3708 192.348 75.4895 191.454 75.9358Z" fill="#E8594F"/>
<path d="M269.517 60.9492C269.517 63.1866 268.623 65.4223 267.056 66.9888C266.386 65.4223 265.715 64.0806 264.819 62.7386C262.806 60.2781 260.346 58.7133 257.215 58.0406C254.083 57.3697 250.729 57.8175 247.82 59.1593C248.043 58.7116 248.043 58.2653 248.268 57.8175C249.835 54.2384 253.189 51.778 256.991 51.5547H259.9C263.702 52.0025 267.281 54.4629 268.623 58.2653C269.292 58.9362 269.517 60.0552 269.517 60.9492Z" fill="#E8594F"/>
<path d="M265.94 74.1457C265.94 71.6852 265.269 69.2249 264.373 66.9874C262.808 63.856 260.348 61.6188 256.992 60.7245C250.059 58.9349 243.348 63.6328 239.098 68.5539C234.177 74.369 230.822 81.7502 230.822 89.5796C230.822 91.5923 231.045 93.6049 231.716 95.6192C231.716 95.8423 232.164 96.2901 232.387 96.2901C232.61 96.2901 233.058 96.2901 233.281 96.0669L246.478 83.5416C248.49 81.7521 251.622 83.5416 250.951 86.2252L247.371 101.659C247.371 102.107 247.371 102.33 247.595 102.553C247.818 102.776 248.265 102.776 248.489 102.776C254.751 99.868 259.672 94.5007 262.58 88.2383C264.821 83.7636 266.163 79.0657 265.94 74.1464L265.94 74.1457ZM250.058 72.1315C249.164 72.1315 248.492 71.4606 248.492 70.565C248.492 69.671 249.163 68.9985 250.058 68.9985C250.952 68.9985 251.625 69.6694 251.625 70.565C251.625 71.4606 250.954 72.1315 250.058 72.1315ZM256.992 79.9608C256.544 79.9608 256.098 79.513 256.098 79.0668C256.098 78.619 256.545 78.1728 256.992 78.1728C257.439 78.1728 257.886 78.6206 257.886 79.0668C257.887 79.513 257.439 79.9608 256.992 79.9608ZM259.006 72.3563C257.887 72.3563 256.993 71.4623 256.993 70.3436C256.993 69.225 257.887 68.3309 259.006 68.3309C260.125 68.3309 261.019 69.225 261.019 70.3436C261.019 71.4608 260.123 72.3563 259.006 72.3563Z" fill="#E8594F"/>
<path d="M199.061 28.9644C195.706 20.4644 195.706 16.662 195.706 16.662C198.615 14.2015 199.732 10.6224 198.615 7.0448C197.496 3.24255 193.917 0.111328 189.669 0.111328C180.945 0.111328 176.918 11.7427 184.524 17.1101C184.524 17.1101 191.01 28.517 196.602 30.9774C197.496 31.4252 198.615 31.4252 199.063 30.5297C199.509 30.3065 199.509 29.6353 199.061 28.9644ZM189.667 14.2015C186.983 14.2015 184.969 12.1888 184.969 9.50361C184.969 6.82001 186.981 4.80567 189.667 4.80567C192.35 4.80567 194.365 6.81837 194.365 9.50361C194.365 12.1888 192.35 14.2015 189.667 14.2015Z" fill="#E8594F"/>
<path d="M223.888 30.7533C224.336 31.6473 225.455 31.6473 226.349 31.2011C231.941 28.7406 238.426 17.3337 238.426 17.3337C246.031 11.9652 242.229 0.334961 233.282 0.334961C229.032 0.334961 225.453 3.24319 224.336 7.26843C223.217 10.8476 224.336 14.4268 227.244 16.8856C227.244 16.8856 227.244 20.6878 223.665 29.188C223.441 29.6342 223.441 30.3055 223.888 30.7533ZM228.586 9.50473C228.586 6.82113 230.599 4.80679 233.284 4.80679C235.968 4.80679 237.982 6.81949 237.982 9.50473C237.982 12.1883 235.969 14.2027 233.284 14.2027C230.599 14.2011 228.586 12.1884 228.586 9.50473Z" fill="#E8594F"/>
<path d="M20.0411 191.071C16.8731 191.071 14.1531 190.527 11.8811 189.439C9.60909 188.319 7.73709 186.863 6.26509 185.071C4.79309 183.247 3.70509 181.279 3.00109 179.167C2.29709 177.055 1.94509 175.007 1.94509 173.023V171.967C1.94509 169.759 2.29709 167.599 3.00109 165.487C3.73709 163.343 4.84109 161.407 6.31309 159.679C7.81709 157.951 9.68909 156.575 11.9291 155.551C14.1691 154.527 16.7931 154.015 19.8011 154.015C23.0011 154.015 25.8331 154.623 28.2971 155.839C30.7931 157.023 32.7931 158.703 34.2971 160.879C35.8011 163.023 36.6811 165.519 36.9371 168.367H28.0091C27.7851 167.151 27.3051 166.095 26.5691 165.199C25.8331 164.303 24.8891 163.615 23.7371 163.135C22.5851 162.623 21.2731 162.367 19.8011 162.367C18.4251 162.367 17.1771 162.607 16.0571 163.087C14.9691 163.567 14.0411 164.255 13.2731 165.151C12.5371 166.015 11.9611 167.071 11.5451 168.319C11.1611 169.567 10.9691 170.975 10.9691 172.543C10.9691 174.111 11.1611 175.519 11.5451 176.767C11.9611 178.015 12.5531 179.087 13.3211 179.983C14.1211 180.879 15.0811 181.567 16.2011 182.047C17.3211 182.495 18.6011 182.719 20.0411 182.719C22.2811 182.719 24.1691 182.175 25.7051 181.087C27.2731 179.999 28.2171 178.543 28.5371 176.719H37.4651C37.1771 179.343 36.2971 181.743 34.8251 183.919C33.3531 186.095 31.3691 187.839 28.8731 189.151C26.3771 190.431 23.4331 191.071 20.0411 191.071ZM47.5425 190.111H38.6145L49.8465 155.071H64.1505L75.7665 190.111H66.5505L57.5265 161.311L60.0705 162.271H53.7345L56.3265 161.311L47.5425 190.111ZM66.4545 181.999H47.7825L50.4705 174.703H63.7665L66.4545 181.999ZM88.6323 190.111H79.7043V154.783H88.6323V190.111ZM111.096 190.111H100.824L90.9843 175.231H100.68L111.096 190.111ZM94.2483 179.359H86.3763V172.495H94.7763C95.8323 172.495 96.7443 172.287 97.5123 171.871C98.2803 171.455 98.8723 170.863 99.2883 170.095C99.7363 169.327 99.9603 168.431 99.9603 167.407C99.9603 166.351 99.7363 165.439 99.2883 164.671C98.8723 163.903 98.2803 163.311 97.5123 162.895C96.7443 162.479 95.8323 162.271 94.7763 162.271H86.3763V154.783H94.2483C97.2883 154.783 99.9123 155.247 102.12 156.175C104.328 157.071 106.024 158.415 107.208 160.207C108.392 161.967 108.984 164.159 108.984 166.783V167.551C108.984 170.175 108.376 172.367 107.16 174.127C105.976 175.855 104.28 177.167 102.072 178.063C99.8963 178.927 97.2883 179.359 94.2483 179.359ZM120.996 190.111H112.068L123.3 155.071H137.604L149.22 190.111H140.004L130.98 161.311L133.524 162.271H127.188L129.78 161.311L120.996 190.111ZM139.908 181.999H121.236L123.924 174.703H137.22L139.908 181.999ZM161.413 190.111H153.157V155.071H167.797L179.461 183.007H181.141L180.181 183.871V155.071H188.533V190.111H173.797L162.133 162.175H160.453L161.413 161.311V190.111ZM212.57 191.071C209.274 191.071 206.442 190.527 204.074 189.439C201.706 188.319 199.77 186.863 198.266 185.071C196.762 183.279 195.658 181.327 194.954 179.215C194.25 177.103 193.898 175.039 193.898 173.023V171.967C193.898 169.791 194.266 167.647 195.002 165.535C195.738 163.391 196.842 161.455 198.314 159.727C199.818 157.999 201.69 156.623 203.93 155.599C206.17 154.543 208.794 154.015 211.802 154.015C215.034 154.015 217.882 154.607 220.346 155.791C222.842 156.975 224.842 158.623 226.346 160.735C227.85 162.815 228.73 165.231 228.986 167.983H220.058C219.866 166.927 219.402 165.983 218.666 165.151C217.93 164.287 216.97 163.615 215.786 163.135C214.634 162.623 213.306 162.367 211.802 162.367C210.362 162.367 209.082 162.623 207.962 163.135C206.874 163.615 205.946 164.319 205.178 165.247C204.442 166.143 203.882 167.215 203.498 168.463C203.114 169.711 202.922 171.071 202.922 172.543C202.922 174.015 203.13 175.391 203.546 176.671C203.962 177.919 204.57 179.023 205.37 179.983C206.17 180.911 207.178 181.631 208.394 182.143C209.61 182.655 211.002 182.911 212.57 182.911C214.554 182.911 216.266 182.495 217.706 181.663C219.146 180.831 220.154 179.727 220.73 178.351L220.058 183.631V175.999H228.218V183.199C226.746 185.727 224.65 187.679 221.93 189.055C219.242 190.399 216.122 191.071 212.57 191.071ZM231.098 177.727H211.61V171.487H231.098V177.727ZM250.587 191.071C247.227 191.071 244.379 190.447 242.043 189.199C239.739 187.951 237.979 186.191 236.763 183.919C235.547 181.615 234.939 178.895 234.939 175.759V155.071H243.867V175.951C243.867 177.327 244.123 178.527 244.635 179.551C245.179 180.575 245.947 181.359 246.939 181.903C247.931 182.447 249.147 182.719 250.587 182.719C252.027 182.719 253.243 182.447 254.235 181.903C255.227 181.359 255.979 180.591 256.491 179.599C257.003 178.575 257.259 177.359 257.259 175.951V155.071H266.187V175.759C266.187 178.895 265.579 181.615 264.363 183.919C263.179 186.191 261.419 187.951 259.083 189.199C256.779 190.447 253.947 191.071 250.587 191.071ZM281.282 190.111H272.642V155.071H281.282V190.111ZM295.106 190.111H280.322V182.815H295.106V190.111ZM294.098 175.951H280.322V168.655H294.098V175.951ZM294.818 162.367H280.322V155.071H294.818V162.367ZM329.617 200.671H324.817C322.513 200.671 320.513 200.415 318.817 199.903C317.121 199.391 315.793 198.447 314.833 197.071C313.905 195.695 313.441 193.695 313.441 191.071V185.311H321.793V191.263C321.793 192.159 322.033 192.831 322.513 193.279C323.025 193.727 323.729 193.951 324.625 193.951H329.617V200.671ZM317.857 191.071C314.657 191.071 311.873 190.527 309.505 189.439C307.137 188.319 305.169 186.863 303.601 185.071C302.033 183.247 300.865 181.279 300.097 179.167C299.329 177.055 298.945 175.007 298.945 173.023V171.967C298.945 169.759 299.345 167.599 300.145 165.487C300.945 163.343 302.145 161.407 303.745 159.679C305.345 157.951 307.313 156.575 309.649 155.551C312.017 154.527 314.753 154.015 317.857 154.015C320.929 154.015 323.633 154.527 325.969 155.551C328.337 156.575 330.321 157.951 331.921 159.679C333.521 161.407 334.721 163.343 335.521 165.487C336.353 167.599 336.769 169.759 336.769 171.967V173.023C336.769 175.007 336.369 177.055 335.569 179.167C334.801 181.279 333.633 183.247 332.065 185.071C330.497 186.863 328.529 188.319 326.161 189.439C323.793 190.527 321.025 191.071 317.857 191.071ZM317.857 182.719C319.393 182.719 320.769 182.463 321.985 181.951C323.201 181.439 324.241 180.719 325.105 179.791C325.969 178.863 326.625 177.791 327.073 176.575C327.521 175.327 327.745 173.983 327.745 172.543C327.745 171.007 327.505 169.615 327.025 168.367C326.577 167.119 325.921 166.047 325.057 165.151C324.193 164.255 323.153 163.567 321.937 163.087C320.721 162.607 319.361 162.367 317.857 162.367C316.321 162.367 314.945 162.607 313.729 163.087C312.513 163.567 311.473 164.255 310.609 165.151C309.745 166.047 309.089 167.119 308.641 168.367C308.193 169.615 307.969 171.007 307.969 172.543C307.969 173.983 308.193 175.327 308.641 176.575C309.089 177.791 309.745 178.863 310.609 179.791C311.473 180.719 312.513 181.439 313.729 181.951C314.945 182.463 316.321 182.719 317.857 182.719ZM357.133 191.071C353.773 191.071 350.925 190.447 348.589 189.199C346.285 187.951 344.525 186.191 343.309 183.919C342.093 181.615 341.485 178.895 341.485 175.759V155.071H350.413V175.951C350.413 177.327 350.669 178.527 351.181 179.551C351.725 180.575 352.493 181.359 353.485 181.903C354.477 182.447 355.693 182.719 357.133 182.719C358.573 182.719 359.789 182.447 360.781 181.903C361.773 181.359 362.525 180.591 363.037 179.599C363.549 178.575 363.805 177.359 363.805 175.951V155.071H372.733V175.759C372.733 178.895 372.125 181.615 370.909 183.919C369.725 186.191 367.965 187.951 365.629 189.199C363.325 190.447 360.493 191.071 357.133 191.071ZM388.213 190.111H379.285V155.071H388.213V190.111ZM421.279 190.111H393.295V184.159L410.383 162.655L410.623 163.519L408.991 161.407L410.095 162.367H393.967V155.071H421.471V161.023L404.335 182.527L404.095 181.615L405.727 183.775L404.623 182.815H421.279V190.111Z" fill="#E8594F"/>
</svg>
