<svg width="565" height="81" viewBox="0 0 565 81" fill="none" xmlns="http://www.w3.org/2000/svg">
<path d="M24.2617 41.4902C24.5416 43.3079 25.2408 44.9851 26.3583 46.3836C25.5197 46.8029 24.681 47.3626 23.9819 48.0608C22.1642 49.8785 21.3255 52.6741 22.1642 55.0506C22.4441 55.7498 23.1433 56.7279 22.5835 57.427C22.3037 57.7069 22.0248 57.7069 21.6045 57.5665C19.3675 56.7278 17.6902 54.491 17.1305 51.5558C16.2939 47.0818 19.5089 42.6088 24.2616 41.4905L24.2617 41.4902Z" fill="#E8594F"/>
<path d="M17.1328 26.8115C16.574 27.93 16.2942 29.1879 15.595 30.3064C15.3151 30.7257 14.8958 31.0056 14.337 31.0056C13.9177 31.0056 13.4984 30.5863 13.358 30.167C13.2185 29.4678 13.0781 28.4897 13.0781 27.3713C13.2185 26.8116 16.7134 26.8115 17.1328 26.8115Z" fill="#E8594F"/>
<path d="M39.0807 17.7249C36.9841 18.9828 35.3059 20.8004 34.3278 23.3162C33.9085 22.0583 33.2094 20.9398 32.3708 19.8213C30.1338 16.7458 27.0583 14.6491 23.4238 13.8106C23.5633 13.6712 23.7037 13.6712 23.8431 13.5307C29.574 11.1543 35.8646 12.972 39.0807 17.7249Z" fill="#E8594F"/>
<path d="M33.069 25.4143C32.7892 26.3933 32.6497 27.5108 32.5103 28.6293C31.8111 28.9092 31.1119 29.1881 30.4137 29.468C28.8759 28.7688 27.3382 28.3495 25.6609 28.21C25.6609 28.21 23.1451 26.5328 22.5854 26.2529C20.9082 25.5538 19.0905 25.2739 17.2729 25.2739C12.5201 25.4133 7.90661 28.0696 6.08902 32.6831C5.25039 34.92 5.38984 37.4359 4.69066 39.6729C4.41079 40.372 3.99148 40.7914 3.2923 40.9308C2.73354 41.0702 2.17381 40.6509 1.7545 40.0922C0.216698 37.157 -0.0621706 32.9628 0.216697 29.6075C0.776429 25.973 2.45365 22.3389 5.11005 19.5422C10.0034 14.37 17.9713 12.5524 24.5417 15.3481C28.5962 17.3062 31.8111 21.0799 33.069 25.4143Z" fill="#E8594F"/>
<path d="M28.7346 31.0056C28.5952 31.0056 27.896 31.5643 27.7556 31.7048C25.5186 33.6618 23.9809 36.7374 24.2607 39.6736H23.2817C17.9692 39.6736 13.6355 42.8887 12.6574 48.0619C12.3776 49.4602 12.3776 50.7182 11.9582 52.1154C11.8188 52.6742 11.3995 53.0945 10.8398 53.0945C10.281 53.0945 9.86071 52.8146 9.58182 52.3953C8.46333 50.1584 7.90457 46.1047 8.46333 42.8897C9.58182 36.1797 15.4531 30.8673 22.1631 30.168C24.2606 29.8872 26.6372 30.167 28.7346 31.0056Z" fill="#E8594F"/>
<path d="M108.279 51.6958C107.999 54.3522 106.601 56.7285 103.945 57.7066C103.526 57.846 103.246 57.846 102.966 57.5671C102.686 57.2872 102.686 56.8679 102.827 56.4486C103.385 55.0503 103.945 53.7922 103.665 52.1152C103.385 50.5774 102.686 49.179 101.569 48.0616C100.87 47.3624 100.031 46.6633 99.0529 46.244C99.0529 46.244 99.0529 44.7062 98.4941 43.4483C99.3328 42.8895 99.8925 42.1904 100.312 41.4912C100.312 41.4912 101.71 41.4912 102.408 41.6307C107.719 43.4483 108.698 48.2009 108.279 51.6958Z" fill="#E8594F"/>
<path d="M102.268 12.9716C98.6338 13.9507 95.418 16.0472 93.182 19.2622C92.3434 20.3807 91.6442 21.6386 91.2249 22.8966C90.2459 20.2403 88.2887 18.7025 86.0527 17.3053C89.2678 12.5525 95.9787 10.4551 101.85 12.6921C101.989 12.8315 102.129 12.8315 102.268 12.9719V12.9716Z" fill="#E8594F"/>
<path d="M111.913 27.3704C111.913 28.3495 111.774 29.3275 111.633 30.1661C111.494 30.7249 111.214 31.0047 110.654 31.0047C109.816 31.1442 109.256 30.1661 108.977 29.4669C108.838 29.1871 107.998 26.8105 107.998 26.8105C107.999 26.8105 110.375 26.8107 111.913 27.3704Z" fill="#E8594F"/>
<path d="M116.107 52.3945C115.827 52.9532 115.408 53.2331 114.849 53.0936C114.29 53.0936 113.87 52.6743 113.73 52.1146C113.031 49.7382 112.892 47.3618 112.053 45.1248C109.816 39.6728 102.826 39.1141 100.869 39.8123C101.428 37.4359 100.73 34.919 98.9121 33.1024C99.3314 31.5646 100.589 30.446 101.009 30.0269C104.364 29.747 107.719 30.5856 110.794 32.6832C114.289 35.0596 116.666 38.6939 117.225 42.8881C117.645 46.1041 117.225 50.1575 116.107 52.3945Z" fill="#E8594F"/>
<path d="M123.377 40.0919C123.097 40.6506 122.539 41.0709 121.839 40.9305C120.302 40.7911 120.302 39.1129 120.162 37.9943C119.882 36.3171 119.603 34.7793 119.044 33.101C118.205 30.7245 116.947 28.627 114.85 27.2295C109.258 23.7346 99.7517 24.9926 97.0953 31.5629C94.9988 30.305 92.7619 30.305 92.7619 30.305C92.7619 28.4874 92.482 26.2514 92.2031 24.853C92.2031 24.853 92.9023 23.3152 93.3216 22.616C94.8594 19.6798 97.2359 17.164 100.311 15.6262C107.581 11.9918 116.807 14.5077 121.7 20.7984C123.797 23.4548 125.056 26.9497 125.335 30.304C125.194 33.6614 124.915 37.2958 123.378 40.0915L123.377 40.0919Z" fill="#E8594F"/>
<path d="M79.7607 39.673C79.2019 39.8124 78.5027 40.0923 77.943 40.2317C77.2438 40.3712 76.6851 40.651 75.9859 40.7905C74.0288 41.3492 71.9323 41.6291 69.6954 41.909C67.4584 42.1888 65.2214 42.3283 62.8451 42.3283C60.4687 42.3283 58.2319 42.1888 55.9949 41.909C55.715 41.909 55.4361 41.7695 55.1562 41.7695C57.5327 43.4468 59.9091 45.5443 61.8662 47.9208C62.5654 48.7594 63.2646 49.598 63.9627 50.5772C67.5972 50.4377 70.9525 49.878 74.028 48.7595C74.3079 47.9209 74.7272 47.0823 75.286 46.2437C76.8238 43.3075 78.9204 40.9312 81.2967 39.2539C80.8793 39.2539 80.3206 39.5338 79.7609 39.6732L79.7607 39.673Z" fill="#E8594F"/>
<path d="M90.6648 30.7262H90.1061C87.4497 31.0061 84.9339 32.8228 83.9548 35.3395C83.9548 35.4789 83.6749 36.458 83.6749 36.458C82.8363 36.8773 81.8573 37.1571 81.0186 37.5765C78.2229 38.5555 75.4272 39.2537 72.6303 39.8134C69.4153 40.3722 66.0599 40.652 62.8449 40.652C61.0272 40.652 59.2104 40.5126 57.3928 40.3722C55.855 40.2327 54.1778 40.0923 52.64 39.673C51.8014 39.2537 50.9628 38.8344 50.1242 38.4151C49.8443 36.5974 49.0057 34.9202 47.8872 33.3824C46.3494 31.4253 44.2528 30.0271 41.8765 29.3288C39.6396 28.6297 37.2632 28.4902 34.8867 28.9095C35.1666 23.1776 39.6395 18.4248 45.2319 17.4458C46.3504 17.3063 47.3284 17.0265 48.4469 16.887C49.5654 18.1449 50.6839 19.124 51.9418 20.1021C53.0603 20.9407 54.1788 21.7793 55.5762 20.9407C56.4149 20.3819 56.8342 19.2634 56.2754 18.145L55.5762 16.4678H62.8459H70.1155C70.1155 16.4678 69.6962 17.3064 69.5567 17.7257C69.1374 18.8442 68.998 20.2415 69.9761 20.9408C71.234 21.9198 72.3525 21.0802 73.471 20.382C74.8693 19.403 76.1273 18.2855 77.2457 17.0267C81.5791 17.5854 86.1926 18.9837 88.7094 22.7585C89.5481 24.0165 90.1078 25.5542 90.5271 26.9527C90.5251 28.0702 90.6646 29.4685 90.6646 30.7264L90.6648 30.7262Z" fill="#E8594F"/>
<path d="M48.1671 38.2749C44.5327 36.8766 39.3597 36.1784 35.586 37.2959C31.6717 38.4144 28.3164 41.3495 27.6171 45.2647C25.5206 42.4691 25.5206 38.8336 27.0584 35.7591C29.4348 31.0063 35.4466 29.328 40.1994 30.5869C42.5758 31.2861 44.6734 32.544 46.2101 34.5012C47.1882 35.4783 47.8873 36.8766 48.1671 38.2749Z" fill="#E8594F"/>
<path d="M62.146 52.115C58.3712 46.663 53.3386 42.189 47.048 39.8127C42.2952 38.1355 36.5634 37.5758 32.3692 40.7918C27.197 44.8453 26.9172 51.8351 28.5945 57.7075C29.8524 62.1815 32.2289 66.3746 35.3044 69.8695C37.5414 72.5259 40.1978 74.7629 42.9935 76.5795C45.7891 78.2567 48.7253 79.5157 51.521 80.0744C52.0798 80.2138 52.5 79.9349 52.7789 79.6551C53.0588 79.2357 53.1983 78.676 52.9184 78.2567L46.0681 63.7184C45.6488 62.7394 45.7883 61.6219 46.6269 60.9228C47.4655 60.2236 48.584 60.0841 49.5631 60.6429L65.3603 70.1485C65.7796 70.4284 66.1989 70.4284 66.6182 70.1485C67.0375 69.8687 67.3174 69.4493 67.3174 69.03C67.8781 63.1596 65.5017 57.0086 62.1462 52.1152L62.146 52.115ZM36.144 58.9652C35.4448 59.2451 34.6062 58.9652 34.3263 58.2661C34.0465 57.5669 34.3263 56.7283 35.0255 56.4484C35.7247 56.1685 36.5633 56.4484 36.8431 57.1476C37.122 57.8468 36.8431 58.6854 36.144 58.9652ZM36.7027 49.4586C35.4448 49.4586 34.4658 48.4796 34.4658 47.2217C34.4658 45.9637 35.4448 45.1251 36.7027 45.1251C37.9607 45.1251 38.7993 46.1042 38.7993 47.2217C38.9397 48.62 37.9616 49.4586 36.7027 49.4586ZM46.4892 54.4913C46.2093 54.9106 45.6506 54.9106 45.2312 54.6307C44.8119 54.3508 44.8119 53.7921 45.0918 53.3728C45.3717 52.9535 45.9304 52.9535 46.3497 53.2333C46.7681 53.5132 46.7681 54.072 46.4892 54.4913ZM50.1236 47.5015C49.5649 47.7813 48.8657 47.5015 48.5858 46.9427C48.3059 46.384 48.5858 45.6848 49.1446 45.4049C49.7033 45.1251 50.4025 45.4049 50.6824 45.9637C50.9622 46.5234 50.6824 47.2226 50.1236 47.5015Z" fill="#E8594F"/>
<path d="M98.912 38.1352C98.912 39.5336 98.3532 40.9309 97.3741 41.91C96.9548 40.9309 96.5355 40.0923 95.9758 39.2536C94.7179 37.7158 93.1801 36.7378 91.223 36.3174C89.2659 35.8981 87.1694 36.178 85.3516 37.0166C85.491 36.7367 85.491 36.4578 85.6314 36.178C86.6105 33.941 88.7069 32.4032 91.0835 32.2637H92.9011C95.2775 32.5435 97.5144 34.0813 98.3531 36.4578C98.7715 36.8771 98.912 37.5765 98.912 38.1352Z" fill="#E8594F"/>
<path d="M96.6769 46.3831C96.6769 44.8453 96.2576 43.3076 95.6979 41.9091C94.7198 39.952 93.1821 38.5538 91.0846 37.9948C86.7512 36.8763 82.5571 39.8125 79.9007 42.8882C76.8252 46.5226 74.7285 51.1359 74.7285 56.0292C74.7285 57.2872 74.868 58.5451 75.2873 59.804C75.2873 59.9434 75.5671 60.2233 75.7066 60.2233C75.846 60.2233 76.1259 60.2233 76.2653 60.0838L84.513 52.2555C85.771 51.137 87.7281 52.2555 87.3087 53.9328L85.0718 63.5789C85.0718 63.8588 85.0718 63.9982 85.2112 64.1377C85.3506 64.2771 85.6305 64.2771 85.77 64.2771C89.6842 62.4595 92.7597 59.1049 94.5773 55.1909C95.9776 52.3942 96.8163 49.458 96.6768 46.3835L96.6769 46.3831ZM86.7509 45.1242C86.1922 45.1242 85.7719 44.7048 85.7719 44.1451C85.7719 43.5864 86.1912 43.1661 86.7509 43.1661C87.3097 43.1661 87.73 43.5854 87.73 44.1451C87.73 44.7048 87.3107 45.1242 86.7509 45.1242ZM91.0843 50.0175C90.8045 50.0175 90.5256 49.7376 90.5256 49.4587C90.5256 49.1789 90.8055 48.9 91.0843 48.9C91.3642 48.9 91.6431 49.1799 91.6431 49.4587C91.6441 49.7376 91.3642 50.0175 91.0843 50.0175ZM92.3433 45.2647C91.6441 45.2647 91.0853 44.7059 91.0853 44.0068C91.0853 43.3076 91.6441 42.7488 92.3433 42.7488C93.0424 42.7488 93.6012 43.3076 93.6012 44.0068C93.6012 44.705 93.0415 45.2647 92.3433 45.2647Z" fill="#E8594F"/>
<path d="M54.877 18.1445C52.7804 12.832 52.7804 10.4555 52.7804 10.4555C54.5981 8.91767 55.2962 6.68073 54.5981 4.44475C53.8989 2.06834 51.6619 0.111328 49.0067 0.111328C43.5547 0.111328 41.0379 7.38096 45.7917 10.7356C45.7917 10.7356 49.8453 17.8649 53.3401 19.4026C53.8989 19.6825 54.5981 19.6825 54.878 19.1228C55.1568 18.9833 55.1568 18.5638 54.877 18.1445ZM49.0055 8.91771C47.3283 8.91771 46.0693 7.65978 46.0693 5.98151C46.0693 4.30426 47.3273 3.04529 49.0055 3.04529C50.6828 3.04529 51.9417 4.30323 51.9417 5.98151C51.9417 7.65973 50.6828 8.91771 49.0055 8.91771Z" fill="#E8594F"/>
<path d="M70.3938 19.2624C70.6737 19.8212 71.3729 19.8212 71.9316 19.5423C75.4265 18.0045 79.4801 10.8752 79.4801 10.8752C84.2329 7.51986 81.8565 0.250977 76.2651 0.250977C73.6087 0.250977 71.3717 2.06862 70.6737 4.5844C69.9745 6.82135 70.6737 9.05836 72.4914 10.5951C72.4914 10.5951 72.4914 12.9715 70.2544 18.2841C70.114 18.563 70.114 18.9826 70.3938 19.2624ZM73.33 5.98208C73.33 4.30483 74.588 3.04587 76.2663 3.04587C77.9435 3.04587 79.2025 4.30381 79.2025 5.98208C79.2025 7.65933 77.9445 8.91829 76.2663 8.91829C74.588 8.91732 73.33 7.65938 73.33 5.98208Z" fill="#E8594F"/>
<path d="M161.254 57.0713C158.086 57.0713 155.366 56.5273 153.094 55.4393C150.822 54.3193 148.95 52.8633 147.478 51.0713C146.006 49.2473 144.918 47.2793 144.214 45.1673C143.51 43.0553 143.158 41.0073 143.158 39.0233V37.9673C143.158 35.7593 143.51 33.5993 144.214 31.4873C144.95 29.3433 146.054 27.4073 147.526 25.6793C149.03 23.9513 150.902 22.5753 153.142 21.5513C155.382 20.5273 158.006 20.0153 161.014 20.0153C164.214 20.0153 167.046 20.6233 169.51 21.8393C172.006 23.0233 174.006 24.7033 175.51 26.8793C177.014 29.0233 177.894 31.5193 178.15 34.3673H169.222C168.998 33.1513 168.518 32.0953 167.782 31.1993C167.046 30.3033 166.102 29.6153 164.95 29.1353C163.798 28.6233 162.486 28.3673 161.014 28.3673C159.638 28.3673 158.39 28.6073 157.27 29.0873C156.182 29.5673 155.254 30.2553 154.486 31.1513C153.75 32.0153 153.174 33.0713 152.758 34.3193C152.374 35.5673 152.182 36.9753 152.182 38.5433C152.182 40.1113 152.374 41.5193 152.758 42.7673C153.174 44.0153 153.766 45.0873 154.534 45.9833C155.334 46.8793 156.294 47.5673 157.414 48.0473C158.534 48.4953 159.814 48.7193 161.254 48.7193C163.494 48.7193 165.382 48.1753 166.918 47.0873C168.486 45.9993 169.43 44.5433 169.75 42.7193H178.678C178.39 45.3433 177.51 47.7433 176.038 49.9193C174.566 52.0953 172.582 53.8393 170.086 55.1513C167.59 56.4313 164.646 57.0713 161.254 57.0713ZM188.755 56.1113H179.827L191.059 21.0713H205.363L216.979 56.1113H207.763L198.739 27.3113L201.283 28.2713H194.947L197.539 27.3113L188.755 56.1113ZM207.667 47.9993H188.995L191.683 40.7033H204.979L207.667 47.9993ZM229.845 56.1113H220.917V20.7833H229.845V56.1113ZM252.309 56.1113H242.037L232.197 41.2313H241.893L252.309 56.1113ZM235.461 45.3593H227.589V38.4953H235.989C237.045 38.4953 237.957 38.2873 238.725 37.8713C239.493 37.4553 240.085 36.8633 240.501 36.0953C240.949 35.3273 241.173 34.4313 241.173 33.4073C241.173 32.3513 240.949 31.4393 240.501 30.6713C240.085 29.9033 239.493 29.3113 238.725 28.8953C237.957 28.4793 237.045 28.2713 235.989 28.2713H227.589V20.7833H235.461C238.501 20.7833 241.125 21.2473 243.333 22.1753C245.541 23.0713 247.237 24.4153 248.421 26.2073C249.605 27.9673 250.197 30.1593 250.197 32.7833V33.5513C250.197 36.1753 249.589 38.3673 248.373 40.1273C247.189 41.8553 245.493 43.1673 243.285 44.0633C241.109 44.9273 238.501 45.3593 235.461 45.3593ZM262.208 56.1113H253.28L264.512 21.0713H278.816L290.432 56.1113H281.216L272.192 27.3113L274.736 28.2713H268.4L270.992 27.3113L262.208 56.1113ZM281.12 47.9993H262.448L265.136 40.7033H278.432L281.12 47.9993ZM302.626 56.1113H294.37V21.0713H309.01L320.674 49.0073H322.354L321.394 49.8713V21.0713H329.746V56.1113H315.01L303.346 28.1753H301.666L302.626 27.3113V56.1113ZM353.783 57.0713C350.487 57.0713 347.655 56.5273 345.287 55.4393C342.919 54.3193 340.983 52.8633 339.479 51.0713C337.975 49.2793 336.871 47.3273 336.167 45.2153C335.463 43.1033 335.111 41.0393 335.111 39.0233V37.9673C335.111 35.7913 335.479 33.6473 336.215 31.5353C336.951 29.3913 338.055 27.4553 339.527 25.7273C341.031 23.9993 342.903 22.6233 345.143 21.5993C347.383 20.5433 350.007 20.0153 353.015 20.0153C356.247 20.0153 359.095 20.6073 361.559 21.7913C364.055 22.9753 366.055 24.6233 367.559 26.7353C369.063 28.8153 369.943 31.2313 370.199 33.9833H361.271C361.079 32.9273 360.615 31.9833 359.879 31.1513C359.143 30.2873 358.183 29.6153 356.999 29.1353C355.847 28.6233 354.519 28.3673 353.015 28.3673C351.575 28.3673 350.295 28.6233 349.175 29.1353C348.087 29.6153 347.159 30.3193 346.391 31.2473C345.655 32.1433 345.095 33.2153 344.711 34.4633C344.327 35.7113 344.135 37.0713 344.135 38.5433C344.135 40.0153 344.343 41.3913 344.759 42.6713C345.175 43.9193 345.783 45.0233 346.583 45.9833C347.383 46.9113 348.391 47.6313 349.607 48.1433C350.823 48.6553 352.215 48.9113 353.783 48.9113C355.767 48.9113 357.479 48.4953 358.919 47.6633C360.359 46.8313 361.367 45.7273 361.943 44.3513L361.271 49.6313V41.9993H369.431V49.1993C367.959 51.7273 365.863 53.6793 363.143 55.0553C360.455 56.3993 357.335 57.0713 353.783 57.0713ZM372.311 43.7273H352.823V37.4873H372.311V43.7273ZM391.799 57.0713C388.439 57.0713 385.591 56.4473 383.255 55.1993C380.951 53.9513 379.191 52.1913 377.975 49.9193C376.759 47.6153 376.151 44.8953 376.151 41.7593V21.0713H385.079V41.9513C385.079 43.3273 385.335 44.5273 385.847 45.5513C386.391 46.5753 387.159 47.3593 388.151 47.9033C389.143 48.4473 390.359 48.7193 391.799 48.7193C393.239 48.7193 394.455 48.4473 395.447 47.9033C396.439 47.3593 397.191 46.5913 397.703 45.5993C398.215 44.5753 398.471 43.3593 398.471 41.9513V21.0713H407.399V41.7593C407.399 44.8953 406.791 47.6153 405.575 49.9193C404.391 52.1913 402.631 53.9513 400.295 55.1993C397.991 56.4473 395.159 57.0713 391.799 57.0713ZM422.495 56.1113H413.855V21.0713H422.495V56.1113ZM436.319 56.1113H421.535V48.8153H436.319V56.1113ZM435.311 41.9513H421.535V34.6553H435.311V41.9513ZM436.031 28.3673H421.535V21.0713H436.031V28.3673ZM470.83 66.6713H466.03C463.726 66.6713 461.726 66.4153 460.03 65.9033C458.334 65.3913 457.006 64.4473 456.046 63.0713C455.118 61.6953 454.654 59.6953 454.654 57.0713V51.3113H463.006V57.2633C463.006 58.1593 463.246 58.8313 463.726 59.2793C464.238 59.7273 464.942 59.9513 465.838 59.9513H470.83V66.6713ZM459.07 57.0713C455.87 57.0713 453.086 56.5273 450.718 55.4393C448.35 54.3193 446.382 52.8633 444.814 51.0713C443.246 49.2473 442.078 47.2793 441.31 45.1673C440.542 43.0553 440.158 41.0073 440.158 39.0233V37.9673C440.158 35.7593 440.558 33.5993 441.358 31.4873C442.158 29.3433 443.358 27.4073 444.958 25.6793C446.558 23.9513 448.526 22.5753 450.862 21.5513C453.23 20.5273 455.966 20.0153 459.07 20.0153C462.142 20.0153 464.846 20.5273 467.182 21.5513C469.55 22.5753 471.534 23.9513 473.134 25.6793C474.734 27.4073 475.934 29.3433 476.734 31.4873C477.566 33.5993 477.982 35.7593 477.982 37.9673V39.0233C477.982 41.0073 477.582 43.0553 476.782 45.1673C476.014 47.2793 474.846 49.2473 473.278 51.0713C471.71 52.8633 469.742 54.3193 467.374 55.4393C465.006 56.5273 462.238 57.0713 459.07 57.0713ZM459.07 48.7193C460.606 48.7193 461.982 48.4633 463.198 47.9513C464.414 47.4393 465.454 46.7193 466.318 45.7913C467.182 44.8633 467.838 43.7913 468.286 42.5753C468.734 41.3273 468.958 39.9833 468.958 38.5433C468.958 37.0073 468.718 35.6153 468.238 34.3673C467.79 33.1193 467.134 32.0473 466.27 31.1513C465.406 30.2553 464.366 29.5673 463.15 29.0873C461.934 28.6073 460.574 28.3673 459.07 28.3673C457.534 28.3673 456.158 28.6073 454.942 29.0873C453.726 29.5673 452.686 30.2553 451.822 31.1513C450.958 32.0473 450.302 33.1193 449.854 34.3673C449.406 35.6153 449.182 37.0073 449.182 38.5433C449.182 39.9833 449.406 41.3273 449.854 42.5753C450.302 43.7913 450.958 44.8633 451.822 45.7913C452.686 46.7193 453.726 47.4393 454.942 47.9513C456.158 48.4633 457.534 48.7193 459.07 48.7193ZM498.346 57.0713C494.986 57.0713 492.138 56.4473 489.802 55.1993C487.498 53.9513 485.738 52.1913 484.522 49.9193C483.306 47.6153 482.698 44.8953 482.698 41.7593V21.0713H491.626V41.9513C491.626 43.3273 491.882 44.5273 492.394 45.5513C492.938 46.5753 493.706 47.3593 494.698 47.9033C495.69 48.4473 496.906 48.7193 498.346 48.7193C499.786 48.7193 501.002 48.4473 501.994 47.9033C502.986 47.3593 503.738 46.5913 504.25 45.5993C504.762 44.5753 505.018 43.3593 505.018 41.9513V21.0713H513.946V41.7593C513.946 44.8953 513.338 47.6153 512.122 49.9193C510.938 52.1913 509.178 53.9513 506.842 55.1993C504.538 56.4473 501.706 57.0713 498.346 57.0713ZM529.426 56.1113H520.498V21.0713H529.426V56.1113ZM562.492 56.1113H534.508V50.1593L551.596 28.6553L551.836 29.5193L550.204 27.4073L551.308 28.3673H535.18V21.0713H562.684V27.0233L545.548 48.5273L545.308 47.6153L546.94 49.7753L545.836 48.8153H562.492V56.1113Z" fill="#E8594F"/>
</svg>
